# xmcd CD database file
#
# Track frame offsets:
#	150
#	41330
#	65252
#	85627
#	107305
#	125525
#	136655
#	149180
#	169347
#	191440
#	194787
#	214842
#	244845
#	248805
#	270702
#
# Disc length: 4169 seconds
#
# Revision: 0
# Processed by: cddbd v1.5.1PL2 Copyright (c) Steve Scherf et al.
# Submitted via: CDex 1.51
#
DISCID=dc10470f
DTITLE=AKosh S. Unit - Eleter
DYEAR=1999
DGENRE=Jazz
TTITLE0=Foldeken
TTITLE1=Foldeken
TTITLE2=Foldeken
TTITLE3=Let
TTITLE4=Eredet
TTITLE5=Eredet
TTITLE6=Eredet
TTITLE7=Lelekzet
TTITLE8=Turul
TTITLE9=Aradat
TTITLE10=Aradat
TTITLE11=Aradat
TTITLE12=Aradat
TTITLE13=Aradat
TTITLE14=Igeret
EXTD=YEAR: 1999
EXTT0=
EXTT1=
EXTT2=
EXTT3=
EXTT4=
EXTT5=
EXTT6=
EXTT7=
EXTT8=
EXTT9=
EXTT10=
EXTT11=
EXTT12=
EXTT13=
EXTT14=
PLAYORDER=
